<mxfile host="app.diagrams.net" agent="Mozilla/5.0 (Windows NT 10.0; Win64; x64) AppleWebKit/537.36 (KHTML, like Gecko) Chrome/136.0.0.0 Safari/537.36" version="27.0.6">
  <diagram name="Page-1" id="yIiUcmf71XZ1FCEBjsPv">
    <mxGraphModel dx="1426" dy="751" grid="1" gridSize="10" guides="1" tooltips="1" connect="1" arrows="1" fold="1" page="1" pageScale="1" pageWidth="850" pageHeight="1100" math="0" shadow="0">
      <root>
        <mxCell id="0" />
        <mxCell id="1" parent="0" />
        <mxCell id="2w-KK8Vkc5YiUW6Q0APJ-3" value="" style="edgeStyle=orthogonalEdgeStyle;rounded=0;orthogonalLoop=1;jettySize=auto;html=1;" edge="1" parent="1" source="2w-KK8Vkc5YiUW6Q0APJ-1" target="2w-KK8Vkc5YiUW6Q0APJ-2">
          <mxGeometry relative="1" as="geometry" />
        </mxCell>
        <mxCell id="2w-KK8Vkc5YiUW6Q0APJ-1" value="Command from interface" style="ellipse;whiteSpace=wrap;html=1;aspect=fixed;" vertex="1" parent="1">
          <mxGeometry y="200" width="80" height="80" as="geometry" />
        </mxCell>
        <mxCell id="2w-KK8Vkc5YiUW6Q0APJ-5" value="" style="edgeStyle=orthogonalEdgeStyle;rounded=0;orthogonalLoop=1;jettySize=auto;html=1;" edge="1" parent="1" source="2w-KK8Vkc5YiUW6Q0APJ-2" target="2w-KK8Vkc5YiUW6Q0APJ-4">
          <mxGeometry relative="1" as="geometry" />
        </mxCell>
        <mxCell id="2w-KK8Vkc5YiUW6Q0APJ-2" value="Is the command &quot;Turnoff&quot;" style="rhombus;whiteSpace=wrap;html=1;" vertex="1" parent="1">
          <mxGeometry x="100" y="200" width="120" height="80" as="geometry" />
        </mxCell>
        <mxCell id="2w-KK8Vkc5YiUW6Q0APJ-7" value="" style="edgeStyle=orthogonalEdgeStyle;rounded=0;orthogonalLoop=1;jettySize=auto;html=1;" edge="1" parent="1" source="2w-KK8Vkc5YiUW6Q0APJ-4" target="2w-KK8Vkc5YiUW6Q0APJ-6">
          <mxGeometry relative="1" as="geometry" />
        </mxCell>
        <mxCell id="2w-KK8Vkc5YiUW6Q0APJ-4" value="Get current Vicon position and set goal position to that position to hover" style="whiteSpace=wrap;html=1;" vertex="1" parent="1">
          <mxGeometry x="240" y="210" width="120" height="60" as="geometry" />
        </mxCell>
        <mxCell id="2w-KK8Vkc5YiUW6Q0APJ-9" value="" style="edgeStyle=orthogonalEdgeStyle;rounded=0;orthogonalLoop=1;jettySize=auto;html=1;" edge="1" parent="1" source="2w-KK8Vkc5YiUW6Q0APJ-6" target="2w-KK8Vkc5YiUW6Q0APJ-8">
          <mxGeometry relative="1" as="geometry" />
        </mxCell>
        <mxCell id="2w-KK8Vkc5YiUW6Q0APJ-6" value="Keep X and Y coordinate from previous Vicon" style="whiteSpace=wrap;html=1;" vertex="1" parent="1">
          <mxGeometry x="380" y="210" width="120" height="60" as="geometry" />
        </mxCell>
        <mxCell id="2w-KK8Vkc5YiUW6Q0APJ-11" value="" style="edgeStyle=orthogonalEdgeStyle;rounded=0;orthogonalLoop=1;jettySize=auto;html=1;" edge="1" parent="1" source="2w-KK8Vkc5YiUW6Q0APJ-8" target="2w-KK8Vkc5YiUW6Q0APJ-10">
          <mxGeometry relative="1" as="geometry" />
        </mxCell>
        <mxCell id="2w-KK8Vkc5YiUW6Q0APJ-8" value="Remove 0.15 meter from Z position" style="whiteSpace=wrap;html=1;" vertex="1" parent="1">
          <mxGeometry x="520" y="210" width="120" height="60" as="geometry" />
        </mxCell>
        <mxCell id="2w-KK8Vkc5YiUW6Q0APJ-13" value="" style="edgeStyle=orthogonalEdgeStyle;rounded=0;orthogonalLoop=1;jettySize=auto;html=1;" edge="1" parent="1" source="2w-KK8Vkc5YiUW6Q0APJ-10" target="2w-KK8Vkc5YiUW6Q0APJ-12">
          <mxGeometry relative="1" as="geometry" />
        </mxCell>
        <mxCell id="2w-KK8Vkc5YiUW6Q0APJ-10" value="Set goal position with new Z goal" style="whiteSpace=wrap;html=1;" vertex="1" parent="1">
          <mxGeometry x="660" y="210" width="120" height="60" as="geometry" />
        </mxCell>
        <mxCell id="2w-KK8Vkc5YiUW6Q0APJ-15" style="edgeStyle=orthogonalEdgeStyle;rounded=0;orthogonalLoop=1;jettySize=auto;html=1;exitX=0.5;exitY=1;exitDx=0;exitDy=0;entryX=1;entryY=0.5;entryDx=0;entryDy=0;" edge="1" parent="1" source="2w-KK8Vkc5YiUW6Q0APJ-12" target="2w-KK8Vkc5YiUW6Q0APJ-14">
          <mxGeometry relative="1" as="geometry" />
        </mxCell>
        <mxCell id="2w-KK8Vkc5YiUW6Q0APJ-17" value="&lt;b&gt;No&lt;/b&gt;" style="edgeLabel;html=1;align=center;verticalAlign=middle;resizable=0;points=[];fontSize=13;" vertex="1" connectable="0" parent="2w-KK8Vkc5YiUW6Q0APJ-15">
          <mxGeometry x="0.1902" y="-2" relative="1" as="geometry">
            <mxPoint as="offset" />
          </mxGeometry>
        </mxCell>
        <mxCell id="2w-KK8Vkc5YiUW6Q0APJ-19" value="" style="edgeStyle=orthogonalEdgeStyle;rounded=0;orthogonalLoop=1;jettySize=auto;html=1;" edge="1" parent="1" source="2w-KK8Vkc5YiUW6Q0APJ-12" target="2w-KK8Vkc5YiUW6Q0APJ-18">
          <mxGeometry relative="1" as="geometry" />
        </mxCell>
        <mxCell id="2w-KK8Vkc5YiUW6Q0APJ-20" value="Yes" style="edgeLabel;html=1;align=center;verticalAlign=middle;resizable=0;points=[];fontStyle=1;fontSize=13;" vertex="1" connectable="0" parent="2w-KK8Vkc5YiUW6Q0APJ-19">
          <mxGeometry x="-0.1" y="-1" relative="1" as="geometry">
            <mxPoint x="-3" y="-1" as="offset" />
          </mxGeometry>
        </mxCell>
        <mxCell id="2w-KK8Vkc5YiUW6Q0APJ-12" value="Are the last 2 cycles&#39; &lt;br&gt;Z position from Vicon &lt;br&gt;the same?" style="rhombus;whiteSpace=wrap;html=1;" vertex="1" parent="1">
          <mxGeometry x="800" y="190" width="170" height="100" as="geometry" />
        </mxCell>
        <mxCell id="2w-KK8Vkc5YiUW6Q0APJ-16" style="edgeStyle=orthogonalEdgeStyle;rounded=0;orthogonalLoop=1;jettySize=auto;html=1;exitX=0;exitY=0.5;exitDx=0;exitDy=0;entryX=0.5;entryY=1;entryDx=0;entryDy=0;" edge="1" parent="1" source="2w-KK8Vkc5YiUW6Q0APJ-14" target="2w-KK8Vkc5YiUW6Q0APJ-6">
          <mxGeometry relative="1" as="geometry" />
        </mxCell>
        <mxCell id="2w-KK8Vkc5YiUW6Q0APJ-14" value="Wait 0.12 seconds" style="rounded=0;whiteSpace=wrap;html=1;" vertex="1" parent="1">
          <mxGeometry x="590" y="290" width="120" height="60" as="geometry" />
        </mxCell>
        <mxCell id="2w-KK8Vkc5YiUW6Q0APJ-18" value="Disarm the drone" style="whiteSpace=wrap;html=1;" vertex="1" parent="1">
          <mxGeometry x="1020" y="210" width="120" height="60" as="geometry" />
        </mxCell>
      </root>
    </mxGraphModel>
  </diagram>
</mxfile>
